<svg xmlns="http://www.w3.org/2000/svg" xmlns:xlink="http://www.w3.org/1999/xlink" width="337" zoomAndPan="magnify" viewBox="0 0 252.75 231" height="308" preserveAspectRatio="xMidYMid meet" version="1.0"><defs><filter x="0%" y="0%" width="100%" height="100%" id="7b2123de5b"><feColorMatrix values="0 0 0 0 1 0 0 0 0 1 0 0 0 0 1 0 0 0 1 0" color-interpolation-filters="sRGB"/></filter><g/><clipPath id="7929307b6b"><path d="M 0 0.113281 L 252.5 0.113281 L 252.5 230.886719 L 0 230.886719 Z M 0 0.113281 " clip-rule="nonzero"/></clipPath><clipPath id="4add3357f9"><path d="M 10.964844 0.113281 L 241.011719 0.113281 L 241.011719 230.160156 L 10.964844 230.160156 Z M 10.964844 0.113281 " clip-rule="nonzero"/></clipPath><clipPath id="c1f940ef89"><path d="M 52.710938 114.648438 L 199.566406 114.648438 L 199.566406 118.394531 L 52.710938 118.394531 Z M 52.710938 114.648438 " clip-rule="nonzero"/></clipPath><clipPath id="ae4feb790c"><path d="M 96 86 L 99 86 L 99 116.683594 L 96 116.683594 Z M 96 86 " clip-rule="nonzero"/></clipPath><clipPath id="d9d944f4ce"><path d="M 81.375 41.753906 L 114.285156 41.753906 L 114.285156 104 L 81.375 104 Z M 81.375 41.753906 " clip-rule="nonzero"/></clipPath><clipPath id="dc2819b9b7"><path d="M 81.375 41.753906 L 99 41.753906 L 99 104 L 81.375 104 Z M 81.375 41.753906 " clip-rule="nonzero"/></clipPath><mask id="96fa5e8c52"><g filter="url(#7b2123de5b)"><rect x="-25.275" width="303.3" fill="#000000" y="-23.1" height="277.2" fill-opacity="0.08"/></g></mask><clipPath id="72606c996d"><path d="M 0.375 0.832031 L 17 0.832031 L 17 62.691406 L 0.375 62.691406 Z M 0.375 0.832031 " clip-rule="nonzero"/></clipPath><clipPath id="9982752f5e"><rect x="0" width="18" y="0" height="63"/></clipPath><clipPath id="7fb022b3e4"><path d="M 153 85 L 156 85 L 156 115.734375 L 153 115.734375 Z M 153 85 " clip-rule="nonzero"/></clipPath><clipPath id="e1977943df"><path d="M 137.699219 40.808594 L 170.605469 40.808594 L 170.605469 103 L 137.699219 103 Z M 137.699219 40.808594 " clip-rule="nonzero"/></clipPath><clipPath id="6992d2c9f1"><path d="M 137.699219 40.808594 L 155 40.808594 L 155 103 L 137.699219 103 Z M 137.699219 40.808594 " clip-rule="nonzero"/></clipPath><mask id="b657ff0f78"><g filter="url(#7b2123de5b)"><rect x="-25.275" width="303.3" fill="#000000" y="-23.1" height="277.2" fill-opacity="0.08"/></g></mask><clipPath id="b49f5d73c3"><path d="M 0.699219 0.875 L 17.40625 0.875 L 17.40625 62.734375 L 0.699219 62.734375 Z M 0.699219 0.875 " clip-rule="nonzero"/></clipPath><clipPath id="8c899765cf"><rect x="0" width="18" y="0" height="63"/></clipPath><clipPath id="08a3e1f987"><path d="M 125 95 L 127 95 L 127 116.503906 L 125 116.503906 Z M 125 95 " clip-rule="nonzero"/></clipPath><clipPath id="a8990cfc59"><path d="M 114.277344 63.308594 L 137.464844 63.308594 L 137.464844 108 L 114.277344 108 Z M 114.277344 63.308594 " clip-rule="nonzero"/></clipPath><clipPath id="83956bc3f6"><path d="M 114.277344 63.308594 L 127 63.308594 L 127 108 L 114.277344 108 Z M 114.277344 63.308594 " clip-rule="nonzero"/></clipPath><mask id="a443e87421"><g filter="url(#7b2123de5b)"><rect x="-25.275" width="303.3" fill="#000000" y="-23.1" height="277.2" fill-opacity="0.08"/></g></mask><clipPath id="7f4ad451ba"><path d="M 0.277344 0.308594 L 12 0.308594 L 12 44.527344 L 0.277344 44.527344 Z M 0.277344 0.308594 " clip-rule="nonzero"/></clipPath><clipPath id="02330bd49b"><rect x="0" width="13" y="0" height="45"/></clipPath><clipPath id="2fe51af19c"><path d="M 68 95 L 71 95 L 71 116.503906 L 68 116.503906 Z M 68 95 " clip-rule="nonzero"/></clipPath><clipPath id="e1fca21f3c"><path d="M 57.957031 63.308594 L 81.140625 63.308594 L 81.140625 108 L 57.957031 108 Z M 57.957031 63.308594 " clip-rule="nonzero"/></clipPath><clipPath id="cafa282aa4"><path d="M 57.957031 63.308594 L 71 63.308594 L 71 108 L 57.957031 108 Z M 57.957031 63.308594 " clip-rule="nonzero"/></clipPath><mask id="1cb0768563"><g filter="url(#7b2123de5b)"><rect x="-25.275" width="303.3" fill="#000000" y="-23.1" height="277.2" fill-opacity="0.08"/></g></mask><clipPath id="6a37da6f53"><path d="M 0.957031 0.308594 L 13 0.308594 L 13 44.527344 L 0.957031 44.527344 Z M 0.957031 0.308594 " clip-rule="nonzero"/></clipPath><clipPath id="1181dcc490"><rect x="0" width="14" y="0" height="45"/></clipPath><clipPath id="a1a80cf9cc"><path d="M 181 95 L 183 95 L 183 116.503906 L 181 116.503906 Z M 181 95 " clip-rule="nonzero"/></clipPath><clipPath id="b60c3dcd23"><path d="M 170.601562 63.308594 L 193.785156 63.308594 L 193.785156 108 L 170.601562 108 Z M 170.601562 63.308594 " clip-rule="nonzero"/></clipPath><clipPath id="29621063b1"><path d="M 170.601562 63.308594 L 183 63.308594 L 183 108 L 170.601562 108 Z M 170.601562 63.308594 " clip-rule="nonzero"/></clipPath><mask id="eba3b27dfd"><g filter="url(#7b2123de5b)"><rect x="-25.275" width="303.3" fill="#000000" y="-23.1" height="277.2" fill-opacity="0.08"/></g></mask><clipPath id="b8660ee1e1"><path d="M 0.601562 0.308594 L 12.460938 0.308594 L 12.460938 44.527344 L 0.601562 44.527344 Z M 0.601562 0.308594 " clip-rule="nonzero"/></clipPath><clipPath id="51f2a44341"><rect x="0" width="13" y="0" height="45"/></clipPath></defs><g clip-path="url(#7929307b6b)"><path fill="#ffffff" d="M 0 0.113281 L 252.5 0.113281 L 252.5 230.886719 L 0 230.886719 Z M 0 0.113281 " fill-opacity="1" fill-rule="nonzero"/></g><g clip-path="url(#4add3357f9)"><path fill="#f2f1df" d="M 10.964844 0.113281 L 241.011719 0.113281 L 241.011719 230.160156 L 10.964844 230.160156 Z M 10.964844 0.113281 " fill-opacity="1" fill-rule="nonzero"/></g><g fill="#145f37" fill-opacity="1"><g transform="translate(33.759021, 159.574046)"><g><path d="M 15.0625 -3.671875 C 15.613281 -3.671875 16.070312 -3.484375 16.4375 -3.109375 C 16.8125 -2.742188 17 -2.316406 17 -1.828125 C 17 -1.285156 16.8125 -0.84375 16.4375 -0.5 C 16.070312 -0.164062 15.613281 0 15.0625 0 L 4.34375 0 C 3.789062 0 3.328125 -0.1875 2.953125 -0.5625 C 2.578125 -0.9375 2.390625 -1.398438 2.390625 -1.953125 L 2.390625 -20.421875 C 2.390625 -20.984375 2.578125 -21.445312 2.953125 -21.8125 C 3.328125 -22.1875 3.789062 -22.375 4.34375 -22.375 L 15.0625 -22.375 C 15.613281 -22.375 16.070312 -22.195312 16.4375 -21.84375 C 16.8125 -21.5 17 -21.046875 17 -20.484375 C 17 -19.953125 16.816406 -19.519531 16.453125 -19.1875 C 16.097656 -18.863281 15.632812 -18.703125 15.0625 -18.703125 L 6.390625 -18.703125 L 6.390625 -13.265625 L 13.625 -13.265625 C 14.175781 -13.265625 14.632812 -13.085938 15 -12.734375 C 15.375 -12.390625 15.5625 -11.9375 15.5625 -11.375 C 15.5625 -10.84375 15.378906 -10.410156 15.015625 -10.078125 C 14.660156 -9.753906 14.195312 -9.59375 13.625 -9.59375 L 6.390625 -9.59375 L 6.390625 -3.671875 Z M 15.0625 -3.671875 "/></g></g></g><g fill="#145f37" fill-opacity="1"><g transform="translate(52.045621, 159.574046)"><g><path d="M 18.734375 -22.4375 C 19.265625 -22.4375 19.726562 -22.253906 20.125 -21.890625 C 20.519531 -21.535156 20.71875 -21.101562 20.71875 -20.59375 C 20.71875 -20.3125 20.65625 -20.019531 20.53125 -19.71875 L 12.625 -1.25 C 12.4375 -0.84375 12.171875 -0.53125 11.828125 -0.3125 C 11.484375 -0.101562 11.117188 0 10.734375 0 C 10.378906 -0.0195312 10.046875 -0.128906 9.734375 -0.328125 C 9.421875 -0.535156 9.179688 -0.832031 9.015625 -1.21875 L 1.125 -19.75 C 1.007812 -19.96875 0.953125 -20.238281 0.953125 -20.5625 C 0.953125 -21.132812 1.164062 -21.59375 1.59375 -21.9375 C 2.019531 -22.289062 2.457031 -22.46875 2.90625 -22.46875 C 3.269531 -22.46875 3.609375 -22.359375 3.921875 -22.140625 C 4.242188 -21.929688 4.492188 -21.628906 4.671875 -21.234375 L 11.09375 -6.109375 L 16.96875 -21.234375 C 17.144531 -21.609375 17.390625 -21.898438 17.703125 -22.109375 C 18.023438 -22.328125 18.367188 -22.4375 18.734375 -22.4375 Z M 18.734375 -22.4375 "/></g></g></g><g fill="#145f37" fill-opacity="1"><g transform="translate(73.71486, 159.574046)"><g><path d="M 15.0625 -3.671875 C 15.613281 -3.671875 16.070312 -3.484375 16.4375 -3.109375 C 16.8125 -2.742188 17 -2.316406 17 -1.828125 C 17 -1.285156 16.8125 -0.84375 16.4375 -0.5 C 16.070312 -0.164062 15.613281 0 15.0625 0 L 4.34375 0 C 3.789062 0 3.328125 -0.1875 2.953125 -0.5625 C 2.578125 -0.9375 2.390625 -1.398438 2.390625 -1.953125 L 2.390625 -20.421875 C 2.390625 -20.984375 2.578125 -21.445312 2.953125 -21.8125 C 3.328125 -22.1875 3.789062 -22.375 4.34375 -22.375 L 15.0625 -22.375 C 15.613281 -22.375 16.070312 -22.195312 16.4375 -21.84375 C 16.8125 -21.5 17 -21.046875 17 -20.484375 C 17 -19.953125 16.816406 -19.519531 16.453125 -19.1875 C 16.097656 -18.863281 15.632812 -18.703125 15.0625 -18.703125 L 6.390625 -18.703125 L 6.390625 -13.265625 L 13.625 -13.265625 C 14.175781 -13.265625 14.632812 -13.085938 15 -12.734375 C 15.375 -12.390625 15.5625 -11.9375 15.5625 -11.375 C 15.5625 -10.84375 15.378906 -10.410156 15.015625 -10.078125 C 14.660156 -9.753906 14.195312 -9.59375 13.625 -9.59375 L 6.390625 -9.59375 L 6.390625 -3.671875 Z M 15.0625 -3.671875 "/></g></g></g><g fill="#145f37" fill-opacity="1"><g transform="translate(91.99628, 159.574046)"><g><path d="M 19.953125 -3.140625 C 20.222656 -2.960938 20.4375 -2.734375 20.59375 -2.453125 C 20.757812 -2.179688 20.84375 -1.894531 20.84375 -1.59375 C 20.84375 -1.207031 20.710938 -0.859375 20.453125 -0.546875 C 20.140625 -0.160156 19.648438 0.03125 18.984375 0.03125 C 18.472656 0.03125 18.003906 -0.0820312 17.578125 -0.3125 C 16.046875 -1.1875 15.28125 -2.96875 15.28125 -5.65625 C 15.28125 -6.425781 15.03125 -7.035156 14.53125 -7.484375 C 14.03125 -7.929688 13.3125 -8.15625 12.375 -8.15625 L 6.390625 -8.15625 L 6.390625 -1.953125 C 6.390625 -1.378906 6.234375 -0.910156 5.921875 -0.546875 C 5.617188 -0.179688 5.210938 0 4.703125 0 C 4.078125 0 3.535156 -0.1875 3.078125 -0.5625 C 2.617188 -0.9375 2.390625 -1.398438 2.390625 -1.953125 L 2.390625 -20.421875 C 2.390625 -20.984375 2.578125 -21.445312 2.953125 -21.8125 C 3.328125 -22.1875 3.789062 -22.375 4.34375 -22.375 L 13.5625 -22.375 C 14.664062 -22.375 15.707031 -22.078125 16.6875 -21.484375 C 17.664062 -20.890625 18.445312 -20.066406 19.03125 -19.015625 C 19.625 -17.972656 19.921875 -16.800781 19.921875 -15.5 C 19.921875 -14.4375 19.628906 -13.398438 19.046875 -12.390625 C 18.472656 -11.378906 17.726562 -10.570312 16.8125 -9.96875 C 18.15625 -9.03125 18.890625 -7.773438 19.015625 -6.203125 C 19.085938 -5.859375 19.125 -5.523438 19.125 -5.203125 C 19.207031 -4.546875 19.289062 -4.070312 19.375 -3.78125 C 19.457031 -3.5 19.648438 -3.285156 19.953125 -3.140625 Z M 13.390625 -11.4375 C 13.773438 -11.4375 14.148438 -11.617188 14.515625 -11.984375 C 14.878906 -12.347656 15.175781 -12.832031 15.40625 -13.4375 C 15.644531 -14.050781 15.765625 -14.707031 15.765625 -15.40625 C 15.765625 -16 15.644531 -16.546875 15.40625 -17.046875 C 15.175781 -17.554688 14.878906 -17.957031 14.515625 -18.25 C 14.148438 -18.550781 13.773438 -18.703125 13.390625 -18.703125 L 6.390625 -18.703125 L 6.390625 -11.4375 Z M 13.390625 -11.4375 "/></g></g></g><g fill="#145f37" fill-opacity="1"><g transform="translate(113.953157, 159.574046)"><g><path d="M 18.890625 -12.078125 C 19.441406 -12.078125 19.898438 -11.890625 20.265625 -11.515625 C 20.628906 -11.148438 20.8125 -10.691406 20.8125 -10.140625 L 20.8125 -3.359375 C 20.8125 -2.609375 20.484375 -2.03125 19.828125 -1.625 C 17.734375 -0.332031 15.441406 0.3125 12.953125 0.3125 C 10.835938 0.3125 8.882812 -0.203125 7.09375 -1.234375 C 5.300781 -2.265625 3.882812 -3.660156 2.84375 -5.421875 C 1.800781 -7.179688 1.28125 -9.101562 1.28125 -11.1875 C 1.28125 -13.28125 1.800781 -15.203125 2.84375 -16.953125 C 3.882812 -18.710938 5.300781 -20.109375 7.09375 -21.140625 C 8.882812 -22.179688 10.835938 -22.703125 12.953125 -22.703125 C 15.054688 -22.703125 16.890625 -22.273438 18.453125 -21.421875 C 18.765625 -21.242188 19 -21.015625 19.15625 -20.734375 C 19.320312 -20.460938 19.40625 -20.171875 19.40625 -19.859375 C 19.40625 -19.316406 19.226562 -18.847656 18.875 -18.453125 C 18.519531 -18.066406 18.085938 -17.875 17.578125 -17.875 C 17.265625 -17.875 16.914062 -17.957031 16.53125 -18.125 C 15.375 -18.613281 14.179688 -18.859375 12.953125 -18.859375 C 11.585938 -18.859375 10.328125 -18.507812 9.171875 -17.8125 C 8.023438 -17.125 7.113281 -16.191406 6.4375 -15.015625 C 5.769531 -13.847656 5.4375 -12.570312 5.4375 -11.1875 C 5.4375 -9.800781 5.769531 -8.519531 6.4375 -7.34375 C 7.113281 -6.175781 8.023438 -5.242188 9.171875 -4.546875 C 10.328125 -3.859375 11.585938 -3.515625 12.953125 -3.515625 C 13.546875 -3.515625 14.179688 -3.566406 14.859375 -3.671875 C 15.546875 -3.785156 16.144531 -3.925781 16.65625 -4.09375 L 16.65625 -8.25 L 13.65625 -8.25 C 13.09375 -8.25 12.625 -8.425781 12.25 -8.78125 C 11.882812 -9.144531 11.703125 -9.609375 11.703125 -10.171875 C 11.703125 -10.722656 11.882812 -11.175781 12.25 -11.53125 C 12.625 -11.894531 13.09375 -12.078125 13.65625 -12.078125 Z M 18.890625 -12.078125 "/></g></g></g><g fill="#145f37" fill-opacity="1"><g transform="translate(136.197682, 159.574046)"><g><path d="M 19.953125 -3.140625 C 20.222656 -2.960938 20.4375 -2.734375 20.59375 -2.453125 C 20.757812 -2.179688 20.84375 -1.894531 20.84375 -1.59375 C 20.84375 -1.207031 20.710938 -0.859375 20.453125 -0.546875 C 20.140625 -0.160156 19.648438 0.03125 18.984375 0.03125 C 18.472656 0.03125 18.003906 -0.0820312 17.578125 -0.3125 C 16.046875 -1.1875 15.28125 -2.96875 15.28125 -5.65625 C 15.28125 -6.425781 15.03125 -7.035156 14.53125 -7.484375 C 14.03125 -7.929688 13.3125 -8.15625 12.375 -8.15625 L 6.390625 -8.15625 L 6.390625 -1.953125 C 6.390625 -1.378906 6.234375 -0.910156 5.921875 -0.546875 C 5.617188 -0.179688 5.210938 0 4.703125 0 C 4.078125 0 3.535156 -0.1875 3.078125 -0.5625 C 2.617188 -0.9375 2.390625 -1.398438 2.390625 -1.953125 L 2.390625 -20.421875 C 2.390625 -20.984375 2.578125 -21.445312 2.953125 -21.8125 C 3.328125 -22.1875 3.789062 -22.375 4.34375 -22.375 L 13.5625 -22.375 C 14.664062 -22.375 15.707031 -22.078125 16.6875 -21.484375 C 17.664062 -20.890625 18.445312 -20.066406 19.03125 -19.015625 C 19.625 -17.972656 19.921875 -16.800781 19.921875 -15.5 C 19.921875 -14.4375 19.628906 -13.398438 19.046875 -12.390625 C 18.472656 -11.378906 17.726562 -10.570312 16.8125 -9.96875 C 18.15625 -9.03125 18.890625 -7.773438 19.015625 -6.203125 C 19.085938 -5.859375 19.125 -5.523438 19.125 -5.203125 C 19.207031 -4.546875 19.289062 -4.070312 19.375 -3.78125 C 19.457031 -3.5 19.648438 -3.285156 19.953125 -3.140625 Z M 13.390625 -11.4375 C 13.773438 -11.4375 14.148438 -11.617188 14.515625 -11.984375 C 14.878906 -12.347656 15.175781 -12.832031 15.40625 -13.4375 C 15.644531 -14.050781 15.765625 -14.707031 15.765625 -15.40625 C 15.765625 -16 15.644531 -16.546875 15.40625 -17.046875 C 15.175781 -17.554688 14.878906 -17.957031 14.515625 -18.25 C 14.148438 -18.550781 13.773438 -18.703125 13.390625 -18.703125 L 6.390625 -18.703125 L 6.390625 -11.4375 Z M 13.390625 -11.4375 "/></g></g></g><g fill="#145f37" fill-opacity="1"><g transform="translate(158.154558, 159.574046)"><g><path d="M 15.0625 -3.671875 C 15.613281 -3.671875 16.070312 -3.484375 16.4375 -3.109375 C 16.8125 -2.742188 17 -2.316406 17 -1.828125 C 17 -1.285156 16.8125 -0.84375 16.4375 -0.5 C 16.070312 -0.164062 15.613281 0 15.0625 0 L 4.34375 0 C 3.789062 0 3.328125 -0.1875 2.953125 -0.5625 C 2.578125 -0.9375 2.390625 -1.398438 2.390625 -1.953125 L 2.390625 -20.421875 C 2.390625 -20.984375 2.578125 -21.445312 2.953125 -21.8125 C 3.328125 -22.1875 3.789062 -22.375 4.34375 -22.375 L 15.0625 -22.375 C 15.613281 -22.375 16.070312 -22.195312 16.4375 -21.84375 C 16.8125 -21.5 17 -21.046875 17 -20.484375 C 17 -19.953125 16.816406 -19.519531 16.453125 -19.1875 C 16.097656 -18.863281 15.632812 -18.703125 15.0625 -18.703125 L 6.390625 -18.703125 L 6.390625 -13.265625 L 13.625 -13.265625 C 14.175781 -13.265625 14.632812 -13.085938 15 -12.734375 C 15.375 -12.390625 15.5625 -11.9375 15.5625 -11.375 C 15.5625 -10.84375 15.378906 -10.410156 15.015625 -10.078125 C 14.660156 -9.753906 14.195312 -9.59375 13.625 -9.59375 L 6.390625 -9.59375 L 6.390625 -3.671875 Z M 15.0625 -3.671875 "/></g></g></g><g fill="#145f37" fill-opacity="1"><g transform="translate(176.435979, 159.574046)"><g><path d="M 15.0625 -3.671875 C 15.613281 -3.671875 16.070312 -3.484375 16.4375 -3.109375 C 16.8125 -2.742188 17 -2.316406 17 -1.828125 C 17 -1.285156 16.8125 -0.84375 16.4375 -0.5 C 16.070312 -0.164062 15.613281 0 15.0625 0 L 4.34375 0 C 3.789062 0 3.328125 -0.1875 2.953125 -0.5625 C 2.578125 -0.9375 2.390625 -1.398438 2.390625 -1.953125 L 2.390625 -20.421875 C 2.390625 -20.984375 2.578125 -21.445312 2.953125 -21.8125 C 3.328125 -22.1875 3.789062 -22.375 4.34375 -22.375 L 15.0625 -22.375 C 15.613281 -22.375 16.070312 -22.195312 16.4375 -21.84375 C 16.8125 -21.5 17 -21.046875 17 -20.484375 C 17 -19.953125 16.816406 -19.519531 16.453125 -19.1875 C 16.097656 -18.863281 15.632812 -18.703125 15.0625 -18.703125 L 6.390625 -18.703125 L 6.390625 -13.265625 L 13.625 -13.265625 C 14.175781 -13.265625 14.632812 -13.085938 15 -12.734375 C 15.375 -12.390625 15.5625 -11.9375 15.5625 -11.375 C 15.5625 -10.84375 15.378906 -10.410156 15.015625 -10.078125 C 14.660156 -9.753906 14.195312 -9.59375 13.625 -9.59375 L 6.390625 -9.59375 L 6.390625 -3.671875 Z M 15.0625 -3.671875 "/></g></g></g><g fill="#145f37" fill-opacity="1"><g transform="translate(194.717399, 159.574046)"><g><path d="M 19.375 -22.375 C 19.882812 -22.375 20.296875 -22.203125 20.609375 -21.859375 C 20.929688 -21.523438 21.09375 -21.101562 21.09375 -20.59375 L 21.09375 -1.953125 C 21.09375 -1.398438 20.90625 -0.9375 20.53125 -0.5625 C 20.164062 -0.1875 19.707031 0 19.15625 0 C 18.851562 0 18.554688 -0.046875 18.265625 -0.140625 C 17.984375 -0.234375 17.773438 -0.367188 17.640625 -0.546875 L 5.921875 -15.4375 L 5.921875 -1.796875 C 5.921875 -1.273438 5.753906 -0.84375 5.421875 -0.5 C 5.085938 -0.164062 4.65625 0 4.125 0 C 3.613281 0 3.195312 -0.164062 2.875 -0.5 C 2.550781 -0.84375 2.390625 -1.273438 2.390625 -1.796875 L 2.390625 -20.421875 C 2.390625 -20.984375 2.578125 -21.445312 2.953125 -21.8125 C 3.328125 -22.1875 3.789062 -22.375 4.34375 -22.375 C 4.664062 -22.375 4.976562 -22.3125 5.28125 -22.1875 C 5.59375 -22.0625 5.828125 -21.890625 5.984375 -21.671875 L 17.609375 -6.84375 L 17.609375 -20.59375 C 17.609375 -21.101562 17.773438 -21.523438 18.109375 -21.859375 C 18.441406 -22.203125 18.863281 -22.375 19.375 -22.375 Z M 19.375 -22.375 "/></g></g></g><g clip-path="url(#c1f940ef89)"><path fill="#145f37" d="M 52.710938 114.648438 L 199.566406 114.648438 L 199.566406 118.394531 L 52.710938 118.394531 Z M 52.710938 114.648438 " fill-opacity="1" fill-rule="nonzero"/></g><g clip-path="url(#ae4feb790c)"><path fill="#145f37" d="M 98.019531 86.402344 L 96.855469 116.441406 L 98.792969 116.441406 Z M 98.019531 86.402344 " fill-opacity="1" fill-rule="nonzero"/></g><g clip-path="url(#d9d944f4ce)"><path fill="#145f37" d="M 114.332031 75.34375 C 114.332031 92.332031 97.824219 103.394531 97.824219 103.394531 C 97.824219 103.394531 81.316406 92.332031 81.316406 75.34375 C 81.316406 58.351562 97.824219 41.84375 97.824219 41.84375 C 97.824219 41.84375 114.332031 58.351562 114.332031 75.34375 Z M 114.332031 75.34375 " fill-opacity="1" fill-rule="nonzero"/></g><g clip-path="url(#dc2819b9b7)"><g mask="url(#96fa5e8c52)"><g transform="matrix(1, 0, 0, 1, 81, 41)"><g clip-path="url(#9982752f5e)"><g clip-path="url(#72606c996d)"><path fill="#145f37" d="M 16.824219 0.84375 C 16.824219 0.84375 0.316406 17.351562 0.316406 34.34375 C 0.316406 51.332031 16.824219 62.394531 16.824219 62.394531 Z M 16.824219 0.84375 " fill-opacity="1" fill-rule="nonzero"/></g></g></g></g></g><g clip-path="url(#7fb022b3e4)"><path fill="#145f37" d="M 154.339844 85.457031 L 153.179688 115.492188 L 155.113281 115.492188 Z M 154.339844 85.457031 " fill-opacity="1" fill-rule="nonzero"/></g><g clip-path="url(#e1977943df)"><path fill="#145f37" d="M 170.652344 74.394531 C 170.652344 91.386719 154.148438 102.445312 154.148438 102.445312 C 154.148438 102.445312 137.640625 91.386719 137.640625 74.394531 C 137.640625 57.402344 154.148438 40.894531 154.148438 40.894531 C 154.148438 40.894531 170.652344 57.402344 170.652344 74.394531 Z M 170.652344 74.394531 " fill-opacity="1" fill-rule="nonzero"/></g><g clip-path="url(#6992d2c9f1)"><g mask="url(#b657ff0f78)"><g transform="matrix(1, 0, 0, 1, 137, 40)"><g clip-path="url(#8c899765cf)"><g clip-path="url(#b49f5d73c3)"><path fill="#145f37" d="M 17.148438 0.894531 C 17.148438 0.894531 0.640625 17.402344 0.640625 34.394531 C 0.640625 51.386719 17.148438 62.445312 17.148438 62.445312 Z M 17.148438 0.894531 " fill-opacity="1" fill-rule="nonzero"/></g></g></g></g></g><g clip-path="url(#08a3e1f987)"><path fill="#145f37" d="M 126.121094 95.085938 L 125.296875 116.464844 L 126.671875 116.464844 Z M 126.121094 95.085938 " fill-opacity="1" fill-rule="nonzero"/></g><g clip-path="url(#a8990cfc59)"><path fill="#145f37" d="M 137.734375 87.214844 C 137.734375 99.304688 125.984375 107.179688 125.984375 107.179688 C 125.984375 107.179688 114.238281 99.304688 114.238281 87.214844 C 114.238281 75.121094 125.984375 63.371094 125.984375 63.371094 C 125.984375 63.371094 137.734375 75.121094 137.734375 87.214844 Z M 137.734375 87.214844 " fill-opacity="1" fill-rule="nonzero"/></g><g clip-path="url(#83956bc3f6)"><g mask="url(#a443e87421)"><g transform="matrix(1, 0, 0, 1, 114, 63)"><g clip-path="url(#02330bd49b)"><g clip-path="url(#7f4ad451ba)"><path fill="#145f37" d="M 11.984375 0.371094 C 11.984375 0.371094 0.238281 12.121094 0.238281 24.214844 C 0.238281 36.304688 11.984375 44.179688 11.984375 44.179688 Z M 11.984375 0.371094 " fill-opacity="1" fill-rule="nonzero"/></g></g></g></g></g><g clip-path="url(#2fe51af19c)"><path fill="#145f37" d="M 69.800781 95.085938 L 68.972656 116.464844 L 70.351562 116.464844 Z M 69.800781 95.085938 " fill-opacity="1" fill-rule="nonzero"/></g><g clip-path="url(#e1fca21f3c)"><path fill="#145f37" d="M 81.410156 87.214844 C 81.410156 99.304688 69.664062 107.179688 69.664062 107.179688 C 69.664062 107.179688 57.914062 99.304688 57.914062 87.214844 C 57.914062 75.121094 69.664062 63.371094 69.664062 63.371094 C 69.664062 63.371094 81.410156 75.121094 81.410156 87.214844 Z M 81.410156 87.214844 " fill-opacity="1" fill-rule="nonzero"/></g><g clip-path="url(#cafa282aa4)"><g mask="url(#1cb0768563)"><g transform="matrix(1, 0, 0, 1, 57, 63)"><g clip-path="url(#1181dcc490)"><g clip-path="url(#6a37da6f53)"><path fill="#145f37" d="M 12.664062 0.371094 C 12.664062 0.371094 0.914062 12.121094 0.914062 24.214844 C 0.914062 36.304688 12.664062 44.179688 12.664062 44.179688 Z M 12.664062 0.371094 " fill-opacity="1" fill-rule="nonzero"/></g></g></g></g></g><g clip-path="url(#a1a80cf9cc)"><path fill="#145f37" d="M 182.445312 95.085938 L 181.617188 116.464844 L 182.996094 116.464844 Z M 182.445312 95.085938 " fill-opacity="1" fill-rule="nonzero"/></g><g clip-path="url(#b60c3dcd23)"><path fill="#145f37" d="M 194.054688 87.214844 C 194.054688 99.304688 182.308594 107.179688 182.308594 107.179688 C 182.308594 107.179688 170.558594 99.304688 170.558594 87.214844 C 170.558594 75.121094 182.308594 63.371094 182.308594 63.371094 C 182.308594 63.371094 194.054688 75.121094 194.054688 87.214844 Z M 194.054688 87.214844 " fill-opacity="1" fill-rule="nonzero"/></g><g clip-path="url(#29621063b1)"><g mask="url(#eba3b27dfd)"><g transform="matrix(1, 0, 0, 1, 170, 63)"><g clip-path="url(#51f2a44341)"><g clip-path="url(#b8660ee1e1)"><path fill="#145f37" d="M 12.308594 0.371094 C 12.308594 0.371094 0.558594 12.121094 0.558594 24.214844 C 0.558594 36.304688 12.308594 44.179688 12.308594 44.179688 Z M 12.308594 0.371094 " fill-opacity="1" fill-rule="nonzero"/></g></g></g></g></g></svg>